<svg width="131" height="81" viewBox="0 0 131 81" fill="none" xmlns="http://www.w3.org/2000/svg">
<path d="M46.3021 29.3885C47.5283 27.9734 49.5279 27.9734 50.7541 29.3885L70.077 51.6868C72.0384 53.9502 70.6369 57.7971 67.851 57.7971H29.2052C26.4193 57.7971 25.0178 53.9502 26.9792 51.6868L46.3021 29.3885Z" fill="#FF3E20"/>
<path d="M80.2939 51.3084C81.5172 52.7201 83.5119 52.7201 84.7352 51.3084L104.011 29.0643C105.968 26.8064 104.57 22.9689 101.79 22.9689H63.2386C60.4594 22.9689 59.0614 26.8064 61.018 29.0643L80.2939 51.3084Z" fill="#9E20FF"/>
<path fill-rule="evenodd" clip-rule="evenodd" d="M52.6016 0.0110907L106.751 1.08037e-05C127.038 -0.0185295 137.948 23.83 124.672 39.1748L95.0602 73.4007C90.9671 78.1316 85.0212 80.85 78.7667 80.85H23.7175C3.27701 80.85 -7.55378 56.6777 6.04769 41.4145L36.5166 7.22308C40.6051 2.63499 46.4573 0.0110907 52.6016 0.0110907ZM52.6016 14.5299C50.5959 14.5299 48.6855 15.3865 47.3509 16.8842L16.882 51.0756C11.6203 56.9802 15.8102 66.3311 23.7175 66.3311H78.7667C80.8084 66.3311 82.7494 65.4437 84.0855 63.8994L113.697 29.6735C118.833 23.7374 114.612 14.5117 106.765 14.5189L52.6016 14.5299Z" fill="#A0B1CC"/>
</svg>
